<?xml version="1.0" encoding="utf-8" ?>
<svg xmlns="http://www.w3.org/2000/svg" xmlns:cc="http://creativecommons.org/ns" xmlns:dc="http://purl.org/dc/elements/1.1/" xmlns:ev="http://www.w3.org/2001/xml-events" xmlns:inkscape="http://www.inkscape.org/namespaces/inkscape" xmlns:rdf="http://www.w3.org/1999/02/22-rdf-syntax-ns" xmlns:sodipodi="http://sodipodi.sourceforge.net/DTD/sodipodi-0.dtd" xmlns:xlink="http://www.w3.org/1999/xlink" baseProfile="tiny" height="26.45833333cm" version="1.2" viewBox="0 0 1000.0 1000.0" width="26.45833333cm">
  <metadata>
    <rdf:RDF>
      <cc:Work>
        <dc:format>image/svg+xml</dc:format>
        <dc:source>vpype read test_input.svg linesort write test_output.svg
</dc:source>
        <dc:date>2026-04-16T11:24:04.279796</dc:date>
      </cc:Work>
    </rdf:RDF>
  </metadata>
  <defs/>
  <g fill="none" id="layer1" inkscape:groupmode="layer" inkscape:label="1" stroke="#000000" stroke-width="1.0" style="display:inline">
    <polyline points="88.698,99.0 88.0,98.5585 87.2346,98.0 87.0,97.839 86.0,97.0618 85.929,97.0 85.0,96.2367 84.7493,96.0 84.0,95.3276 83.6773,95.0 83.0,94.3447 82.6801,94.0 82.0,93.3012 81.7326,93.0 81.0,92.2141 80.8152,92.0 80.0,91.1031 79.9119,91.0 79.0085,90.0 79.0,89.9911 78.0878,89.0 78.0,88.9091 77.1415,88.0 77.0,87.8576 76.1551,87.0 76.0,86.8508 75.1109,86.0 75.0,85.8995 74.0,85.0125 73.9854,85.0 73.0,84.2101 72.7254,84.0 72.0,83.4795 71.2867,83.0 71.0,82.8188 70.0,82.2451 69.522,82.0 69.0,81.7491 68.0,81.3334 67.0495,81.0 67.0,80.9837 66.0,80.7213 65.0,80.5205 64.0,80.3775 63.0,80.2858 62.0,80.2362 61.0,80.217 60.0,80.2142 59.0,80.214 58.0,80.2129 57.0,80.21 56.0,80.2052 55.0,80.1981 54.0,80.189 53.0,80.1781 52.0,80.1658 51.0,80.1528 50.0,80.1399 49.0,80.1278 48.0,80.1174 47.0,80.1096 46.0,80.1053 45.0,80.1055 44.0,80.111 43.0,80.1228 42.0,80.1417 41.0,80.1686 40.0,80.2044 39.0,80.2499 38.0,80.306 37.0,80.3734 36.0,80.4529 35.0,80.5456 34.0,80.6522 33.0,80.7738 32.0,80.9112 31.4226,81.0 31.0,81.0699 30.0,81.2536 29.0,81.458 28.0,81.6846 27.0,81.9353 26.7627,82.0 26.0,82.2286 25.0,82.5579 24.0,82.9214 23.7995,83.0 23.0,83.3537 22.0,83.8412 21.6992,84.0 21.0,84.4289 20.1544,85.0 20.0,85.1251 19.0123,86.0 19.0,86.0137 18.1827,87.0 18.0,87.2972 17.5989,88.0 17.2149,89.0 17.0,89.9829 16.9965,90.0 16.9207,91.0 16.9632,92.0 17.0,92.2483 17.1102,93.0 17.3489,94.0 17.6673,95.0 18.0,95.8537 18.0579,96.0 18.5268,97.0 19.0,97.8932 19.0586,98.0 19.6734,99.0"/>
    <polyline points="10.6097,99.0 10.0,98.0429 9.972,98.0 9.3338,97.0 9.0,96.4671 8.6961,96.0 8.0623,95.0 8.0,94.8964 7.4328,94.0 7.0,93.2867 6.8155,93.0 6.2142,92.0 6.0,91.612 5.6374,91.0 5.0989,90.0 5.0,89.7849 4.6085,89.0 4.1905,88.0 4.0,87.3897 3.8667,87.0 3.6671,86.0 3.6336,85.0 3.8152,84.0 4.0,83.5762 4.269,83.0 5.0,82.0816 5.0697,82.0 6.0,81.2247 6.2908,81.0 7.0,80.5714 8.0,80.0135 8.0251,80.0 9.0,79.5614 10.0,79.1431 10.3574,79.0 11.0,78.7753 12.0,78.4417 13.0,78.1281 13.426,78.0 14.0,77.844 15.0,77.5834 16.0,77.3375 17.0,77.106 17.4794,77.0 18.0,76.8929 19.0,76.6964 20.0,76.5114 21.0,76.3377 22.0,76.1748 23.0,76.0223 23.1544,76.0 24.0,75.8831 25.0,75.7536 26.0,75.6331 27.0,75.5211 28.0,75.4175 29.0,75.3219 30.0,75.234 31.0,75.1534 32.0,75.08 33.0,75.0133 33.2197,75.0 34.0,74.9537 35.0,74.9004 36.0,74.8528 37.0,74.8107 38.0,74.7739 39.0,74.7419 40.0,74.7145 41.0,74.6914 42.0,74.6723 43.0,74.6568 44.0,74.6445 45.0,74.6352 46.0,74.6285 47.0,74.6241 48.0,74.6215 49.0,74.6205 50.0,74.6207 51.0,74.6217 52.0,74.6234 53.0,74.6253 54.0,74.6273 55.0,74.6292 56.0,74.6307 57.0,74.6318 58.0,74.6324 59.0,74.6327 60.0,74.6328 61.0,74.6353 62.0,74.6521 63.0,74.6957 64.0,74.7764 65.0,74.9026 65.5454,75.0 66.0,75.0824 67.0,75.3215 68.0,75.6215 69.0,75.984 69.0375,76.0 70.0,76.4169 71.0,76.9114 71.1593,77.0 72.0,77.475 72.8466,78.0 73.0,78.0969 74.0,78.7812 74.2992,79.0 75.0,79.5208 75.6131,80.0 76.0,80.3075 76.839,81.0 77.0,81.1351 78.0,81.9964 78.004,82.0 79.0,82.8879 79.1247,83.0 80.0,83.7953 80.2257,84.0 81.0,84.7093 81.3211,85.0 82.0,85.6202 82.4245,86.0 83.0,86.5191 83.5491,87.0 84.0,87.3978 84.7088,88.0 85.0,88.2491 85.9185,89.0 86.0,89.0671 87.0,89.8563 87.1914,90.0 88.0,90.6117 88.545,91.0 89.0,91.3274 89.9968,92.0 90.0,92.0022 91.0,92.6588 91.555,93.0 92.0,93.2785 93.0,93.8702 93.2291,94.0 94.0,94.4478 95.0,94.9947 95.0099,95.0 96.0,95.5451 96.8691,96.0 97.0,96.0715 98.0,96.6065 98.7602,97.0 99.0,97.1312"/>
    <polyline points="99.0,92.3105 98.3628,92.0 98.0,91.827 97.0,91.3286 96.3729,91.0 96.0,90.8073 95.0,90.265 94.5356,90.0 94.0,89.6965 93.0,89.0985 92.8426,89.0 92.0,88.4738 91.2821,88.0 91.0,87.8136 90.0,87.1207 89.8331,87.0 89.0,86.3953 88.4797,86.0 88.0,85.6335 87.2033,85.0 87.0,84.8372 86.0,84.0091 85.9892,84.0 85.0,83.1547 84.8231,83.0 84.0,82.2753 83.6923,82.0 83.0,81.3766 82.5851,81.0 82.0,80.4654 81.4906,80.0 81.0,79.5491 80.3975,79.0 80.0,78.6356 79.2942,78.0 79.0,77.7334 78.1682,77.0 78.0,76.8508 77.0047,76.0 77.0,75.9959 76.0,75.1759 75.7731,75.0 75.0,74.3976 74.4537,74.0 74.0,73.6676 73.0111,73.0 73.0,72.9925 72.0,72.3727 71.3285,72.0 71.0,71.8158 70.0,71.3217 69.2461,71.0 69.0,70.8936 68.0,70.5282 67.0,70.2288 66.0343,70.0 66.0,69.9917 65.0,69.8096 64.0,69.6811 63.0,69.5991 62.0,69.5549 61.0,69.5377 60.0,69.5352 59.0,69.5351 58.0,69.5351 57.0,69.535 56.0,69.5348 55.0,69.5346 54.0,69.5344 53.0,69.5343 52.0,69.5344 51.0,69.5348 50.0,69.5355 49.0,69.5367 48.0,69.5385 47.0,69.541 46.0,69.5443 45.0,69.5486 44.0,69.554 43.0,69.5605 42.0,69.5683 41.0,69.5775 40.0,69.5882 39.0,69.6005 38.0,69.6145 37.0,69.6303 36.0,69.6479 35.0,69.6675 34.0,69.689 33.0,69.7125 32.0,69.7382 31.0,69.766 30.0,69.7959 29.0,69.828 28.0,69.8624 27.0,69.8988 26.0,69.9375 25.0,69.9783 24.4917,70.0 24.0,70.021 23.0,70.0657 22.0,70.1125 21.0,70.1612 20.0,70.2119 19.0,70.2643 18.0,70.3185 17.0,70.3741 16.0,70.4311 15.0,70.4893 14.0,70.5484 13.0,70.6082 12.0,70.6686 11.0,70.7293 10.0,70.79 9.0,70.8506 8.0,70.9108 7.0,70.9705 6.4986,71.0 6.0,71.0307 5.0,71.0914 4.0,71.1517 3.0,71.2119 2.0,71.2721 1.0,71.3328 0.0,71.3945"/>
    <polyline points="0.0,64.0231 1.0,64.0203 2.0,64.0176 3.0,64.0147 4.0,64.0118 5.0,64.0087 6.0,64.0056 7.0,64.0023 7.6815,64.0 8.0,63.9989 9.0,63.9954 10.0,63.9918 11.0,63.988 12.0,63.9841 13.0,63.9801 14.0,63.9761 15.0,63.9719 16.0,63.9677 17.0,63.9635 18.0,63.9593 19.0,63.955 20.0,63.9508 21.0,63.9466 22.0,63.9424 23.0,63.9383 24.0,63.9343 25.0,63.9304 26.0,63.9266 27.0,63.9229 28.0,63.9194 29.0,63.916 30.0,63.9128 31.0,63.9097 32.0,63.9068 33.0,63.9041 34.0,63.9015 35.0,63.8991 36.0,63.8969 37.0,63.8949 38.0,63.8931 39.0,63.8914 40.0,63.8899 41.0,63.8885 42.0,63.8874 43.0,63.8863 44.0,63.8854 45.0,63.8847 46.0,63.8841 47.0,63.8835 48.0,63.8831 49.0,63.8828 50.0,63.8825 51.0,63.8823 52.0,63.8822 53.0,63.8821 54.0,63.8821 55.0,63.882 56.0,63.882 57.0,63.882 58.0,63.882 59.0,63.882 60.0,63.882 61.0,63.8848 62.0,63.9035 63.0,63.9515 63.546,64.0 64.0,64.039 65.0,64.1734 66.0,64.3644 67.0,64.6187 68.0,64.9426 68.1451,65.0 69.0,65.3284 70.0,65.7888 70.3928,66.0 71.0,66.3174 72.0,66.9193 72.1191,67.0 73.0,67.5811 73.5684,68.0 74.0,68.31 74.8724,69.0 75.0,69.0985 76.0,69.9363 76.0707,70.0 77.0,70.8163 77.1964,71.0 78.0,71.7341 78.2763,72.0 79.0,72.6808 79.3251,73.0 80.0,73.6478 80.3548,74.0 81.0,74.6264 81.3754,75.0 82.0,75.6082 82.3959,76.0 83.0,76.5851 83.4249,77.0 84.0,77.5498 84.4707,78.0 85.0,78.4957 85.5424,79.0 86.0,79.417 86.6492,80.0 87.0,80.3089 87.8017,81.0 88.0,81.1678 89.0,81.9907 89.0116,82.0 90.0,82.7751 90.2977,83.0 91.0,83.5217 91.6721,84.0 92.0,84.23 93.0,84.9001 93.1562,85.0 94.0,85.5334 94.779,86.0 95.0,86.1313 96.0,86.6953 96.5717,87.0 97.0,87.2276 98.0,87.7296 98.5709,88.0 99.0,88.2038"/>
    <polyline points="99.0,84.1938 98.596,84.0 98.0,83.7097 97.0,83.1889 96.66,83.0 96.0,82.6259 95.0,82.025 94.9606,82.0 94.0,81.375 93.4516,81.0 93.0,80.6826 92.0708,80.0 92.0,79.9464 91.0,79.1587 90.8054,79.0 90.0,78.3224 89.6275,78.0 89.0,77.4386 88.5203,77.0 88.0,76.5075 87.4719,76.0 87.0,75.53 86.4721,75.0 86.0,74.5083 85.5125,74.0 85.0,73.4455 84.5856,73.0 84.0,72.3464 83.6852,72.0 83.0,71.2172 82.8057,71.0 82.0,70.0655 81.9418,70.0 81.0874,69.0 81.0,68.8935 80.236,68.0 80.0,67.7139 79.3813,67.0 79.0,66.5453 78.5153,66.0 78.0,65.4033 77.6273,65.0 77.0,64.3048 76.7027,64.0 76.0,63.2671 75.7202,63.0 75.0,62.3067 74.6482,62.0 74.0,61.4366 73.4387,61.0 73.0,60.6642 72.0175,60.0 72.0,59.9885 71.0,59.4053 70.1898,59.0 70.0,58.9074 69.0,58.4878 68.0,58.1392 67.5113,58.0 67.0,57.8563 66.0,57.6336 65.0,57.4654 64.0,57.3463 63.0,57.2695 62.0,57.2272 61.0,57.2102 60.0,57.2068 59.0,57.2058 58.0,57.2048 57.0,57.2038 56.0,57.2028 55.0,57.2018 54.0,57.2008 53.0,57.1998 52.0,57.1988 51.0,57.1978 50.0,57.1968 49.0,57.1959 48.0,57.1949 47.0,57.1939 46.0,57.1929 45.0,57.192 44.0,57.191 43.0,57.1901 42.0,57.1891 41.0,57.1881 40.0,57.1872 39.0,57.1862 38.0,57.1853 37.0,57.1843 36.0,57.1834 35.0,57.1825 34.0,57.1815 33.0,57.1806 32.0,57.1796 31.0,57.1787 30.0,57.1777 29.0,57.1768 28.0,57.1758 27.0,57.1749 26.0,57.1739 25.0,57.173 24.0,57.172 23.0,57.1711 22.0,57.1701 21.0,57.1691 20.0,57.1681 19.0,57.1671 18.0,57.1662 17.0,57.1652 16.0,57.1642 15.0,57.1632 14.0,57.1621 13.0,57.1611 12.0,57.1601 11.0,57.1591 10.0,57.158 9.0,57.157 8.0,57.1559 7.0,57.1549 6.0,57.1538 5.0,57.1527 4.0,57.1516 3.0,57.1506 2.0,57.1495 1.0,57.1484 0.0,57.1473"/>
    <polyline points="0.0,33.246 0.4988,33.0 1.0,32.751 2.0,32.229 2.4216,32.0 3.0,31.6801 4.0,31.1047 4.1789,31.0 5.0,30.506 5.8186,30.0 6.0,29.8837 7.0,29.242 7.3773,29.0 8.0,28.5829 8.8771,28.0 9.0,27.914 10.0,27.237 10.3634,27.0 11.0,26.561 11.8577,26.0 12.0,25.9009 13.0,25.258 13.4409,25.0 14.0,24.6512 15.0,24.1004 15.2122,24.0 16.0,23.6033 17.0,23.1915 17.5963,23.0 18.0,22.8625 19.0,22.6166 20.0,22.4615 21.0,22.386 22.0,22.3778 23.0,22.4243 24.0,22.5131 25.0,22.6328 26.0,22.7734 27.0,22.9259 27.4615,23.0 28.0,23.0804 29.0,23.2319 30.0,23.3775 31.0,23.513 32.0,23.635 33.0,23.7404 34.0,23.8268 35.0,23.8922 36.0,23.9349 37.0,23.9531 38.0,23.9455 39.0,23.9106 40.0,23.8469 41.0,23.7528 42.0,23.6268 43.0,23.4669 44.0,23.271 45.0,23.037 45.1346,23.0 46.0,22.7639 47.0,22.4482 48.0,22.0867 48.2121,22.0 49.0,21.6767 50.0,21.2146 50.4167,21.0 51.0,20.6953 52.0,20.1153 52.1813,20.0 53.0,19.4661 53.6524,19.0 54.0,18.743 54.9255,18.0 55.0,17.9375 56.0,17.0357 56.0371,17.0 57.0,16.0225 57.021,16.0 57.8969,15.0 58.0,14.8731 58.6806,14.0 59.0,13.5527 59.3835,13.0 60.0,12.0175 60.0108,12.0 60.565,11.0 61.0,10.1047 61.0496,10.0 61.462,9.0 61.81,8.0 62.0,7.3371 62.0937,7.0 62.3152,6.0 62.4831,5.0 62.6023,4.0 62.6788,3.0 62.7203,2.0 62.7365,1.0 62.739,0.0"/>
    <polyline points="68.5874,0.0 68.5857,1.0 68.5744,2.0 68.5455,3.0 68.4925,4.0 68.4101,5.0 68.2942,6.0 68.1415,7.0 68.0,7.7379 67.948,8.0 67.7081,9.0 67.4242,10.0 67.095,11.0 67.0,11.256 66.7112,12.0 66.2764,13.0 66.0,13.5761 65.7862,14.0 65.237,15.0 65.0,15.4005 64.6255,16.0 64.0,16.9335 63.9529,17.0 63.2074,18.0 63.0,18.2651 62.3921,19.0 62.0,19.4553 61.5057,20.0 61.0,20.5401 60.5493,21.0 60.0,21.5475 59.5279,22.0 59.0,22.4977 58.4413,23.0 58.0,23.3932 57.2778,24.0 57.0,24.2333 56.0217,25.0 56.0,25.0171 55.0,25.7558 54.6407,26.0 54.0,26.4431 53.1173,27.0 53.0,27.0761 52.0,27.6725 51.3933,28.0 51.0,28.2206 50.0,28.7299 49.4119,29.0 49.0,29.199 48.0,29.6357 47.0673,30.0 47.0,30.028 46.0,30.4049 45.0,30.7413 44.1405,31.0 44.0,31.0457 43.0,31.3384 42.0,31.5998 41.0,31.8337 40.2069,32.0 40.0,32.0477 39.0,32.2544 38.0,32.4405 37.0,32.6089 36.0,32.7624 35.0,32.9039 34.2692,33.0 34.0,33.0396 33.0,33.1774 32.0,33.31 31.0,33.4403 30.0,33.5713 29.0,33.706 28.0,33.8472 27.0,33.9979 26.9871,34.0 26.0,34.1779 25.0,34.3735 24.0,34.5868 23.0,34.8194 22.2869,35.0 22.0,35.0814 21.0,35.3872 20.0,35.7139 19.1748,36.0 19.0,36.0682 18.0,36.4788 17.0,36.9013 16.775,37.0 16.0,37.3835 15.0,37.8795 14.7603,38.0 14.0,38.4376 13.0,38.9964 12.9936,39.0 12.0,39.6496 11.4354,40.0 11.0,40.3314 10.0599,41.0 10.0,41.0565 9.0,41.9313 8.9147,42.0 8.0775,43.0 8.0,43.2276 7.7041,44.0 8.0,44.8579 8.0587,45.0 9.0,45.6436 9.6317,46.0 10.0,46.1217 11.0,46.4216 12.0,46.6863 13.0,46.9217 13.3615,47.0 14.0,47.1035 15.0,47.2545 16.0,47.3942 17.0,47.5239 18.0,47.6447 19.0,47.7577 20.0,47.8637 21.0,47.9636 21.3813,48.0 22.0,48.0495 23.0,48.1264 24.0,48.2 25.0,48.2707 26.0,48.3388 27.0,48.4046 28.0,48.4685 29.0,48.5306 30.0,48.5911 31.0,48.6503 32.0,48.7084 33.0,48.7655 34.0,48.8217 35.0,48.8772 36.0,48.9321 37.0,48.9865 37.2479,49.0 38.0,49.0365 39.0,49.0851 40.0,49.1335 41.0,49.1818 42.0,49.2301 43.0,49.2783 44.0,49.3266 45.0,49.3747 46.0,49.4228 47.0,49.4708 48.0,49.5186 49.0,49.5663 50.0,49.6138 51.0,49.661 52.0,49.7078 53.0,49.7542 54.0,49.8001 55.0,49.8455 56.0,49.8903 57.0,49.9343 58.0,49.9776 58.5242,50.0 59.0,50.0192 60.0,50.0591 61.0,50.1003 62.0,50.1518 63.0,50.2226 64.0,50.3191 65.0,50.4464 66.0,50.6078 67.0,50.8059 67.8208,51.0 68.0,51.0417 69.0,51.3137 70.0,51.627 71.0,51.983 71.0431,52.0 72.0,52.3809 73.0,52.8264 73.3563,53.0 74.0,53.3227 75.0,53.8756 75.2085,54.0 76.0,54.4946 76.7383,55.0 77.0,55.1899 78.0,55.9786 78.0254,56.0 79.0,56.8866 79.116,57.0 80.0,57.9458 80.0474,58.0 80.8495,59.0 81.0,59.2059 81.5475,60.0 82.0,60.7245 82.1635,61.0 82.7325,62.0 83.0,62.4778 83.2802,63.0 83.8245,64.0 84.0,64.3076 84.3823,65.0 84.9575,66.0 85.0,66.0683 85.5664,67.0 86.0,67.6747 86.2058,68.0 86.884,69.0 87.0,69.1591 87.6095,70.0 88.0,70.5064 88.3813,71.0 89.0,71.7522 89.2057,72.0 90.0,72.899 90.0907,73.0 91.0,73.9524 91.0465,74.0 92.0,74.9194 92.0862,75.0 93.0,75.8076 93.2262,76.0 94.0,76.6244 94.487,77.0 95.0,77.3768 95.8938,78.0 96.0,78.0708 97.0,78.6943 97.5243,79.0 98.0,79.266 99.0,79.7828"/>
    <polyline points="99.0,73.5433 98.1673,73.0 98.0,72.8778 97.0,72.0732 96.9164,72.0 96.0,71.1017 95.9026,71.0 95.0596,70.0 95.0,69.9171 94.3742,69.0 94.0,68.3568 93.801,68.0 93.3581,67.0 93.0166,66.0 93.0,65.918 92.8204,65.0 92.7532,64.0 92.8363,63.0 93.0,62.3504 93.1257,62.0 93.7697,61.0 94.0,60.7553 95.0,60.2004 96.0,60.038 97.0,60.1043 98.0,60.3181 99.0,60.635"/>
    <polyline points="99.0,42.2654 98.9867,42.0 98.982,41.0 99.0,40.5339"/>
    <polyline points="99.0,23.805 98.9037,24.0 98.4222,25.0 98.0,25.9104 97.9569,26.0 97.492,27.0 97.0475,28.0 97.0,28.1113 96.6039,29.0 96.1791,30.0 96.0,30.4424 95.7618,31.0 95.3553,32.0 95.0,32.9185 94.9663,33.0 94.5747,34.0 94.2009,35.0 94.0,35.5656 93.8323,36.0 93.4651,37.0 93.1111,38.0 93.0,38.3307 92.7493,39.0 92.3872,40.0 92.0306,41.0 92.0,41.0904 91.6432,42.0 91.2474,43.0 91.0,43.6233 90.8184,44.0 90.3264,45.0 90.0,45.6256 89.7421,46.0 89.0,46.973 88.9697,47.0 88.0,47.7791 87.4866,48.0 87.0,48.1888 86.0,48.3467 85.0,48.3386 84.0,48.2217 83.0,48.0306 82.8821,48.0 82.0,47.7896 81.0,47.5103 80.0,47.2031 79.3905,47.0 79.0,46.8748 78.0,46.529 77.0,46.172 76.5344,46.0 76.0,45.803 75.0,45.4242 74.0,45.0427 73.889,45.0 73.0,44.6471 72.0,44.2502 71.3648,44.0 71.0,43.8478 70.0,43.4344 69.0,43.0257 68.9352,43.0 68.0,42.5923 67.0,42.1616 66.6134,42.0 66.0,41.7071 65.0,41.2356 64.4923,41.0 64.0,40.7252 63.0,40.1623 62.714,40.0 62.0,39.4705 61.4008,39.0 61.0,38.536 60.5721,38.0 60.1501,37.0 60.0431,36.0 60.1744,35.0 60.4858,34.0 60.933,33.0 61.0,32.8855 61.4746,32.0 62.0,31.1546 62.0877,31.0 62.7416,30.0 63.0,29.6401 63.4215,29.0 64.0,28.1782 64.1154,28.0 64.807,27.0 65.0,26.7327 65.4904,26.0 66.0,25.2549 66.1625,25.0 66.8141,24.0 67.0,23.7173 67.443,23.0 68.0,22.0853 68.0491,22.0 68.6248,21.0 69.0,20.3268 69.1735,20.0 69.6907,19.0 70.0,18.3739 70.1774,18.0 70.6313,17.0 71.0,16.1303 71.0535,16.0 71.4423,15.0 71.7984,14.0 72.0,13.3823 72.122,13.0 72.4131,12.0 72.6717,11.0 72.8985,10.0 73.0,9.4853 73.0948,9.0 73.261,8.0 73.3978,7.0 73.5068,6.0 73.5897,5.0 73.6488,4.0 73.6869,3.0 73.7077,2.0 73.7159,1.0 73.7171,0.0"/>
    <polyline points="79.0988,0.0 79.0979,1.0 79.0922,2.0 79.0778,3.0 79.0516,4.0 79.0114,5.0 79.0,5.2047 78.9579,6.0 78.8889,7.0 78.8028,8.0 78.699,9.0 78.5769,10.0 78.4361,11.0 78.2761,12.0 78.0967,13.0 78.0,13.4948 77.9036,14.0 77.6984,15.0 77.4759,16.0 77.2366,17.0 77.0,17.9303 76.9825,18.0 76.7294,19.0 76.4664,20.0 76.1962,21.0 76.0,21.7287 75.9272,22.0 75.6732,23.0 75.4294,24.0 75.204,25.0 75.0075,26.0 75.0,26.0519 74.863,27.0 74.7748,28.0 74.7603,29.0 74.8411,30.0 75.0,30.8014 75.0463,31.0 75.4323,32.0 76.0,32.9666 76.0242,33.0 76.9789,34.0 77.0,34.0177 78.0,34.6738 78.7181,35.0 79.0,35.1114 80.0,35.3526 81.0,35.4349 82.0,35.3593 83.0,35.1238 83.3074,35.0 84.0,34.7128 85.0,34.1261 85.164,34.0 86.0,33.3491 86.3629,33.0 87.0,32.3859 87.3359,32.0 88.0,31.2439 88.1846,31.0 88.9548,30.0 89.0,29.9424 89.6501,29.0 90.0,28.5085 90.3238,28.0 90.9842,27.0 91.0,26.9766 91.5986,26.0 92.0,25.3719 92.2177,25.0 92.8228,24.0 93.0,23.7159 93.4123,23.0 94.0,22.0182 94.0102,22.0 94.5749,21.0 95.0,20.27 95.1473,20.0 95.6977,19.0 96.0,18.4572 96.2396,18.0 96.7631,17.0 97.0,16.5437 97.2666,16.0 97.7478,15.0 98.0,14.4606 98.2041,14.0 98.6271,13.0 99.0,12.0733"/>
    <polyline points="55.7982,0.0 55.7986,1.0 55.7802,2.0 55.7272,3.0 55.6268,4.0 55.4685,5.0 55.2441,6.0 55.0,6.8221 54.9434,7.0 54.5435,8.0 54.0575,9.0 54.0,9.1005 53.442,10.0 53.0,10.618 52.7005,11.0 52.0,11.7913 51.795,12.0 51.0,12.7301 50.6699,13.0 50.0,13.5018 49.2432,14.0 49.0,14.1488 48.0,14.6781 47.2838,15.0 47.0,15.1203 46.0,15.4696 45.0,15.7485 44.0,15.9583 43.7013,16.0 43.0,16.0938 42.0,16.1622 41.0,16.1657 40.0,16.1033 39.2014,16.0 39.0,15.971 38.0,15.7538 37.0,15.454 36.0,15.065 35.8602,15.0 35.0,14.5268 34.2116,14.0 34.0,13.8242 33.1507,13.0 33.0,12.8034 32.4566,12.0 32.0196,11.0 32.0,10.9216 31.7907,10.0 31.7233,9.0 31.7877,8.0 31.9595,7.0 32.0,6.8501 32.2229,6.0 32.5564,5.0 32.942,4.0 33.0,3.8673 33.3747,3.0 33.8289,2.0 34.0,1.6347 34.298,1.0 34.7589,0.0"/>
    <polyline points="26.754,0.0 26.0003,1.0 26.0,1.0004 25.1711,2.0 25.0,2.2054 24.2691,3.0 24.0,3.2964 23.28,4.0 23.0,4.2817 22.1738,5.0 22.0,5.158 21.0,5.92 20.8706,6.0 20.0,6.5708 19.1255,7.0 19.0,7.0664 18.0,7.4404 17.0,7.6545 16.0,7.723 15.0,7.6562 14.0,7.4619 13.0,7.1454 12.6695,7.0 12.0,6.7381 11.0,6.2391 10.6059,6.0 10.0,5.6652 9.0,5.0163 8.9781,5.0 8.0,4.3231 7.5844,4.0 7.0,3.572 6.2935,3.0 6.0,2.7729 5.0826,2.0 5.0,1.9326 4.0,1.0555 3.9402,1.0 3.0,0.1407 2.8527,0.0"/>
    <polyline points="0.0,4.2018 0.6878,5.0 1.0,5.3896 1.4977,6.0 2.0,6.6721 2.253,7.0 2.9486,8.0 3.0,8.0838 3.5885,9.0 4.0,9.7409 4.1524,10.0 4.6438,11.0 5.0,11.9025 5.0413,12.0 5.3556,13.0 5.5627,14.0 5.6608,15.0 5.6475,16.0 5.5203,17.0 5.2761,18.0 5.0,18.7603 4.9152,19.0 4.4474,20.0 4.0,20.7583 3.8585,21.0 3.157,22.0 3.0,22.1926 2.3359,23.0 2.0,23.3583 1.3853,24.0 1.0,24.3604 0.2924,25.0 0.0,25.2411"/>
    <polyline points="0.0,96.8372 0.1676,97.0 1.0,97.8148 1.1812,98.0 2.0,98.8491 2.1394,99.0"/>
  </g>
</svg>
